<?xml version="1.0" encoding="UTF-8" standalone="no"?><svg xmlns="http://www.w3.org/2000/svg" xmlns:xlink="http://www.w3.org/1999/xlink" contentStyleType="text/css" height="609px" preserveAspectRatio="none" style="width:353px;height:609px;background:#FFFFFF;" version="1.1" viewBox="0 0 353 609" width="353px" zoomAndPan="magnify"><defs/><g><!--MD5=[ff72d5b1baf0f8ae7f1d253b768c7c95]
cluster ChuteSal--><g id="cluster_ChuteSal"><path d="M130.5,6 L194.5,6 A3.75,3.75 0 0 1 197,8.5 L204,29.6094 L343.5,29.6094 A2.5,2.5 0 0 1 346,32.1094 L346,599.5 A2.5,2.5 0 0 1 343.5,602 L130.5,602 A2.5,2.5 0 0 1 128,599.5 L128,8.5 A2.5,2.5 0 0 1 130.5,6 " fill="none" style="stroke:#000000;stroke-width:1.5;"/><line style="stroke:#000000;stroke-width:1.5;" x1="128" x2="204" y1="29.6094" y2="29.6094"/><text fill="#000000" font-family="sans-serif" font-size="14" font-weight="bold" lengthAdjust="spacing" textLength="63" x="132" y="22.5332">ChuteSal</text></g><g id="elem_UC1"><ellipse cx="237.0075" cy="209.2015" fill="#F1F1F1" rx="81.5075" ry="18.7015" style="stroke:#181818;stroke-width:0.5;"/><text fill="#000000" font-family="sans-serif" font-size="14" lengthAdjust="spacing" textLength="118" x="177.6675" y="213.0304">Cadastrar unidade</text></g><g id="elem_UC2"><ellipse cx="237.0017" cy="284.0003" fill="#F1F1F1" rx="93.0017" ry="21.0003" style="stroke:#181818;stroke-width:0.5;"/><text fill="#000000" font-family="sans-serif" font-size="14" lengthAdjust="spacing" textLength="145" x="164.5017" y="287.7289">Cadastrar campeonato</text></g><g id="elem_UC3"><ellipse cx="236.981" cy="357.7962" fill="#F1F1F1" rx="74.481" ry="17.2962" style="stroke:#181818;stroke-width:0.5;"/><text fill="#000000" font-family="sans-serif" font-size="14" lengthAdjust="spacing" textLength="100" x="183.981" y="362.3128">Cadastrar times</text></g><g id="elem_UC4"><ellipse cx="237.0075" cy="429.2015" fill="#F1F1F1" rx="81.5075" ry="18.7015" style="stroke:#181818;stroke-width:0.5;"/><text fill="#000000" font-family="sans-serif" font-size="14" lengthAdjust="spacing" textLength="118" x="177.6675" y="433.0304">Gerenciar partidas</text></g><g id="elem_UC5"><ellipse cx="237.1926" cy="62.0385" fill="#F1F1F1" rx="85.6926" ry="19.5385" style="stroke:#181818;stroke-width:0.5;"/><text fill="#000000" font-family="sans-serif" font-size="14" lengthAdjust="spacing" textLength="128" x="173.1926" y="65.767">Registrar resultados</text></g><g id="elem_UC6"><ellipse cx="237.1463" cy="570.0942" fill="#F1F1F1" rx="61.6463" ry="15.5942" style="stroke:#181818;stroke-width:0.5;"/><text fill="#000000" font-family="sans-serif" font-size="14" lengthAdjust="spacing" textLength="70" x="199.1463" y="574.6108">Divulgação</text></g><g id="elem_UC7"><ellipse cx="236.7877" cy="501.0575" fill="#F1F1F1" rx="78.2877" ry="18.0575" style="stroke:#181818;stroke-width:0.5;"/><text fill="#000000" font-family="sans-serif" font-size="14" lengthAdjust="spacing" textLength="110" x="180.0149" y="505.2774">Visualizar tabelas</text></g><g id="elem_UC8"><ellipse cx="237.0408" cy="136.2082" fill="#F1F1F1" rx="86.5408" ry="19.7082" style="stroke:#181818;stroke-width:0.5;"/><text fill="#000000" font-family="sans-serif" font-size="14" lengthAdjust="spacing" textLength="130" x="172.0408" y="139.9367">Gerenciar inscrições</text></g><!--MD5=[75aabecaf70a71b0ff4b871eebba9af6]
entity o--><g id="elem_o"><ellipse cx="45" cy="216.5" fill="#F1F1F1" rx="8" ry="8" style="stroke:#181818;stroke-width:0.5;"/><path d="M45,224.5 L45,251.5 M32,232.5 L58,232.5 M45,251.5 L32,266.5 M45,251.5 L58,266.5 " fill="none" style="stroke:#181818;stroke-width:0.5;"/><text fill="#000000" font-family="sans-serif" font-size="14" lengthAdjust="spacing" textLength="78" x="6" y="282.5332">Organizador</text></g><!--MD5=[be5750da26e06623bc49653cefaf97c7]
entity p--><g id="elem_p"><ellipse cx="45" cy="504.5" fill="#F1F1F1" rx="8" ry="8" style="stroke:#181818;stroke-width:0.5;"/><path d="M45,512.5 L45,539.5 M32,520.5 L58,520.5 M45,539.5 L32,554.5 M45,539.5 L58,554.5 " fill="none" style="stroke:#181818;stroke-width:0.5;"/><text fill="#000000" font-family="sans-serif" font-size="14" lengthAdjust="spacing" textLength="46" x="22" y="570.5332">Publico</text></g><!--MD5=[e9d29c36921007856a3380be044c7a97]
link p to UC6--><g id="link_p_UC6"><path d="M68.17,539.08 C95.8,544.17 143.99,553.05 181.67,559.99 " fill="none" id="p-to-UC6" style="stroke:#181818;stroke-width:1.0;"/><polygon fill="#181818" points="186.67,560.91,178.5378,555.3541,181.7518,560.0093,177.0967,563.2233,186.67,560.91" style="stroke:#181818;stroke-width:1.0;"/></g><!--MD5=[7d925fd1b29bb43edd295ccebb14689a]
link p to UC7--><g id="link_p_UC7"><path d="M68.17,531.03 C92.89,526.61 134.07,519.24 169.44,512.91 " fill="none" id="p-to-UC7" style="stroke:#181818;stroke-width:1.0;"/><polygon fill="#181818" points="174.62,511.98,165.0544,509.635,169.6988,512.8644,166.4694,517.5088,174.62,511.98" style="stroke:#181818;stroke-width:1.0;"/></g><!--MD5=[7b35c17934cf55cff7553a21602e122b]
link o to UC1--><g id="link_o_UC1"><path d="M84.45,239.31 C109.05,234.39 141.61,227.88 170.24,222.15 " fill="none" id="o-to-UC1" style="stroke:#181818;stroke-width:1.0;"/><polygon fill="#181818" points="175.16,221.17,165.554,218.9966,170.2555,222.1423,167.1097,226.8438,175.16,221.17" style="stroke:#181818;stroke-width:1.0;"/></g><!--MD5=[e3583ba8776466efefa880d92f6cc6d3]
link o to UC2--><g id="link_o_UC2"><path d="M84.45,254.49 C106.41,258.76 134.7,264.27 160.89,269.37 " fill="none" id="o-to-UC2" style="stroke:#181818;stroke-width:1.0;"/><polygon fill="#181818" points="166.09,270.39,158.0207,264.7432,161.1822,269.4341,156.4913,272.5956,166.09,270.39" style="stroke:#181818;stroke-width:1.0;"/></g><!--MD5=[908af89810cb167eba2b7ce977de52bd]
link o to UC3--><g id="link_o_UC3"><path d="M77.54,286.02 C89.66,298.97 104.37,312.49 120,322 C136.71,332.17 156.55,339.69 175.05,345.16 " fill="none" id="o-to-UC3" style="stroke:#181818;stroke-width:1.0;"/><polygon fill="#181818" points="180.23,346.64,172.6702,340.3273,175.4213,345.2702,170.4785,348.0213,180.23,346.64" style="stroke:#181818;stroke-width:1.0;"/></g><!--MD5=[a8af5aacf6e3ca3874e98f205e042c50]
link o to UC4--><g id="link_o_UC4"><path d="M56.48,286.24 C67.23,319.19 87.11,365.22 120,393 C132.85,403.85 148.95,411.43 165.03,416.73 " fill="none" id="o-to-UC4" style="stroke:#181818;stroke-width:1.0;"/><polygon fill="#181818" points="170.01,418.31,162.6239,411.795,165.2401,416.8105,160.2247,419.4268,170.01,418.31" style="stroke:#181818;stroke-width:1.0;"/></g><!--MD5=[d0f0abe418ab813fc8b93596c5af3de7]
link o to UC5--><g id="link_o_UC5"><path d="M56.19,207.96 C66.83,174.56 86.72,127.49 120,99 C132.44,88.35 147.98,80.76 163.6,75.35 " fill="none" id="o-to-UC5" style="stroke:#181818;stroke-width:1.0;"/><polygon fill="#181818" points="168.45,73.74,158.6487,72.7736,163.7037,75.3126,161.1648,80.3676,168.45,73.74" style="stroke:#181818;stroke-width:1.0;"/></g><!--MD5=[666423a9dffdf31360d754764cdc50fb]
link o to UC8--><g id="link_o_UC8"><path d="M78.39,207.81 C90.39,195.28 104.79,182.26 120,173 C135.05,163.83 152.6,156.71 169.43,151.28 " fill="none" id="o-to-UC8" style="stroke:#181818;stroke-width:1.0;"/><polygon fill="#181818" points="174.63,149.64,164.8447,148.5232,169.8601,151.1395,167.2439,156.155,174.63,149.64" style="stroke:#181818;stroke-width:1.0;"/></g><!--MD5=[e6efa235016a412fb4a23a727b581b3d]
@startuml usecases
left to right direction

actor Organizador as o
actor Publico as p

package ChuteSal {
  usecase "Cadastrar unidade" as UC1
  usecase "Cadastrar campeonato" as UC2
  usecase "Cadastrar times" as UC3
  usecase "Gerenciar partidas" as UC4
  usecase "Registrar resultados" as UC5
  usecase "Divulgação" as UC6
  usecase "Visualizar tabelas" as UC7
  usecase "Gerenciar inscrições" as UC8
}
p - -> UC6
p - -> UC7
o - -> UC1
o - -> UC2
o - -> UC3
o - -> UC4
o - -> UC5
o - -> UC8
@enduml

PlantUML version 1.2022.7(Mon Aug 22 14:01:30 BRT 2022)
(GPL source distribution)
Java Runtime: Java(TM) SE Runtime Environment
JVM: Java HotSpot(TM) 64-Bit Server VM
Default Encoding: Cp1252
Language: en
Country: US
--></g></svg>